<svg id="visual" viewBox="0 0 3840 2160" width="3840" height="2160" xmlns="http://www.w3.org/2000/svg" xmlns:xlink="http://www.w3.org/1999/xlink" version="1.1"><rect x="0" y="0" width="3840" height="2160" fill="#181818"></rect><path d="M0 502L91.5 482.3C183 462.7 366 423.3 548.8 450.7C731.7 478 914.3 572 1097.2 641.2C1280 710.3 1463 754.7 1645.8 727C1828.7 699.3 2011.3 599.7 2194.2 523.3C2377 447 2560 394 2742.8 434.5C2925.7 475 3108.3 609 3291.2 625.7C3474 642.3 3657 541.7 3748.5 491.3L3840 441L3840 0L3748.5 0C3657 0 3474 0 3291.2 0C3108.3 0 2925.7 0 2742.8 0C2560 0 2377 0 2194.2 0C2011.3 0 1828.7 0 1645.8 0C1463 0 1280 0 1097.2 0C914.3 0 731.7 0 548.8 0C366 0 183 0 91.5 0L0 0Z" fill="#a881af" stroke-linecap="round" stroke-linejoin="miter"></path></svg>