<svg id="visual" viewBox="0 0 3840 2160" width="3840" height="2160" xmlns="http://www.w3.org/2000/svg" xmlns:xlink="http://www.w3.org/1999/xlink" version="1.1"><rect x="0" y="0" width="3840" height="2160" fill="#181818"></rect><path d="M0 1386L91.5 1444.7C183 1503.3 366 1620.7 548.8 1623.3C731.7 1626 914.3 1514 1097.2 1455.2C1280 1396.3 1463 1390.7 1645.8 1462.7C1828.7 1534.7 2011.3 1684.3 2194.2 1747C2377 1809.7 2560 1785.3 2742.8 1756C2925.7 1726.7 3108.3 1692.3 3291.2 1626C3474 1559.7 3657 1461.3 3748.5 1412.2L3840 1363L3840 2161L3748.5 2161C3657 2161 3474 2161 3291.2 2161C3108.3 2161 2925.7 2161 2742.8 2161C2560 2161 2377 2161 2194.2 2161C2011.3 2161 1828.7 2161 1645.8 2161C1463 2161 1280 2161 1097.2 2161C914.3 2161 731.7 2161 548.8 2161C366 2161 183 2161 91.5 2161L0 2161Z" fill="#212121" stroke-linecap="round" stroke-linejoin="miter"></path></svg>
